<?xml version="1.0" encoding="UTF-8"?>
<svg width="512pt" height="512pt" version="1.1" viewBox="0 0 512 512" xmlns="http://www.w3.org/2000/svg">
 <g fill="#12b0fb">
  <path d="m409.09 397.31c-29.184 0-58.879-3.5859-87.551-11.266-9.2148-2.5586-15.359-10.754-15.359-19.969v-17.922c0-3.0703 2.5586-5.6328 5.6328-5.6328 3.0703 0 5.6328 2.5586 5.6328 5.6328v17.922c0 4.0977 3.0703 8.1914 7.168 9.2148 55.297 14.848 113.66 14.848 168.96 0 4.0977-1.0234 7.168-5.1211 7.168-9.2148v-17.922c0-3.0703 2.5586-5.6328 5.6328-5.6328 3.0703 0 5.6328 2.5586 5.6328 5.6328v17.922c0 9.2148-6.1445 17.922-15.359 19.969-28.68 7.168-57.863 11.266-87.559 11.266z"/>
  <path d="m409.09 447.49c-29.184 0-58.879-3.5859-87.551-11.266-9.2148-2.5586-15.359-10.754-15.359-19.969v-17.922c0-3.0703 2.5586-5.6328 5.6328-5.6328 3.0703 0 5.6328 2.5586 5.6328 5.6328v17.922c0 4.0977 3.0703 8.1914 7.168 9.2148 55.297 14.848 113.66 14.848 168.96 0 4.0977-1.0234 7.168-5.1211 7.168-9.2148v-17.922c0-3.0703 2.5586-5.6328 5.6328-5.6328 3.0703 0 5.6328 2.5586 5.6328 5.6328v17.922c0 9.2148-6.1445 17.922-15.359 19.969-28.68 7.168-57.863 11.266-87.559 11.266z"/>
  <path d="m409.09 497.66c-29.184 0-58.879-3.5859-87.551-11.266-9.2148-2.5586-15.359-10.754-15.359-19.969v-17.922c0-3.0703 2.5586-5.6328 5.6328-5.6328 3.0703 0 5.6328 2.5586 5.6328 5.6328l-0.003906 17.414c0 4.0977 3.0703 8.1914 7.168 9.2148 55.297 14.848 113.66 14.848 168.96 0 4.0977-1.0234 7.168-5.1211 7.168-9.2148v-17.922c0-3.0703 2.5586-5.6328 5.6328-5.6328 3.0703 0 5.6328 2.5586 5.6328 5.6328l-0.003906 17.922c0 9.2148-6.1445 17.922-15.359 19.969-28.672 7.6758-57.855 11.773-87.551 11.773z"/>
  <path d="m409.09 347.65c-51.199 0-102.91-11.266-102.91-33.281 0-19.969 40.961-27.648 58.879-30.207 3.0703-0.51172 6.1445 1.5352 6.6562 4.6094 0.51172 3.0703-1.5352 6.1445-4.6094 6.6562-34.305 5.1172-49.664 14.336-49.664 18.941 0 7.168 32.258 22.016 91.648 22.016s91.648-14.336 91.648-22.016c0-5.1211-15.359-14.336-49.152-18.945-3.0703-0.51172-5.1211-3.0703-4.6094-6.6562 0.51172-3.0703 3.0703-5.1211 6.6562-4.6094 17.922 2.5586 58.879 10.238 58.879 30.207-0.51172 22.02-52.223 33.285-103.42 33.285z"/>
  <path d="m409.09 315.9c-15.871 0-28.672-12.801-28.672-28.672 0-15.871 12.801-28.672 28.672-28.672s28.672 12.801 28.672 28.672c0 15.875-12.801 28.672-28.672 28.672zm0-46.078c-9.7266 0-17.406 7.6797-17.406 17.406 0 9.7266 7.6797 17.406 17.406 17.406 9.7266 0 17.406-7.6797 17.406-17.406 0-9.7266-7.6797-17.406-17.406-17.406z"/>
  <path d="m293.38 251.39c-15.871 0-28.672-12.801-28.672-28.672s12.801-28.672 28.672-28.672 28.672 12.801 28.672 28.672c0 15.359-12.801 28.672-28.672 28.672zm0-46.59c-9.7266 0-17.406 7.6797-17.406 17.406 0 9.7266 7.6797 17.406 17.406 17.406s17.406-7.6797 17.406-17.406c0.003906-9.2148-7.6758-17.406-17.406-17.406z"/>
  <path d="m187.9 312.32c-15.871 0-28.672-12.801-28.672-28.672 0-15.871 12.801-28.672 28.672-28.672s28.672 12.801 28.672 28.672c0.51562 15.359-12.797 28.672-28.672 28.672zm0-46.594c-9.7266 0-17.406 7.6797-17.406 17.406 0 9.7266 7.6797 17.406 17.406 17.406 9.7266 0 17.406-7.6797 17.406-17.406 0.51562-9.2109-7.6758-17.406-17.406-17.406z"/>
  <path d="m163.84 209.41c-15.871 0-28.672-12.801-28.672-28.672s12.801-28.672 28.672-28.672 28.672 12.801 28.672 28.672c0 15.875-12.801 28.672-28.672 28.672zm0-46.078c-9.7266 0-17.406 7.6797-17.406 17.406s7.6797 17.406 17.406 17.406c9.7266 0 17.406-7.6797 17.406-17.406 0-9.2148-8.1914-17.406-17.406-17.406z"/>
  <path d="m409.09 269.82c-3.0703 0-5.6328-2.5586-5.6328-5.6328v-35.84h-87.039c-3.0703 0-5.6328-2.5586-5.6328-5.6328 0-3.0703 2.5586-5.6328 5.6328-5.6328h92.672c3.0703 0 5.6328 2.5586 5.6328 5.6328v41.473c-0.003906 3.0742-2.5625 5.6328-5.6328 5.6328z"/>
  <path d="m271.36 221.18c-0.51172 0-1.0234 0-1.5352-0.51172l-86.016-27.137c-3.0703-1.0234-4.6094-4.0977-3.5859-7.168 1.0234-3.0703 4.0977-4.6094 7.168-3.5859l85.504 27.141c3.0703 1.0234 4.6094 4.0977 3.5859 7.168-0.51172 2.5586-2.5586 4.0938-5.1211 4.0938z"/>
  <path d="m208.38 276.99c-2.0469 0-3.5859-1.0234-5.1211-2.5586-1.5352-2.5586-0.51172-6.1445 2.0469-7.6797l64.512-37.887c2.5586-1.5352 6.1445-0.51172 7.6797 2.0469 1.5352 2.5586 0.51172 6.1445-2.0469 7.6797l-63.996 37.887c-1.0234 0.51172-2.0508 0.51172-3.0742 0.51172z"/>
  <path d="m285.7 356.35h-252.93c-17.922 0-32.77-14.848-32.77-32.77v-281.6c0-14.848 12.289-27.137 27.137-27.137h360.45c14.848 0 27.137 12.289 27.137 27.137v157.18c0 3.0703-2.5586 5.6328-5.6328 5.6328-3.0703 0-5.6328-2.5586-5.6328-5.6328v-157.18c0-8.7031-7.168-15.871-15.871-15.871h-360.45c-8.7031 0-15.871 7.168-15.871 15.871v281.6c0 11.777 9.7266 21.504 21.504 21.504h252.93c3.0703 0 5.6328 2.5586 5.6328 5.6328-0.003906 3.0703-2.5625 5.6289-5.6367 5.6289z"/>
  <path d="m65.535 64c0 5.0898-4.125 9.2148-9.2148 9.2148-5.0898 0-9.2148-4.125-9.2148-9.2148s4.125-9.2148 9.2148-9.2148c5.0898 0 9.2148 4.125 9.2148 9.2148"/>
  <path d="m108.54 64c0 5.0898-4.125 9.2148-9.2148 9.2148s-9.2148-4.125-9.2148-9.2148 4.125-9.2148 9.2148-9.2148 9.2148 4.125 9.2148 9.2148"/>
  <path d="m152.06 64c0 5.0898-4.125 9.2148-9.2148 9.2148s-9.2148-4.125-9.2148-9.2148 4.125-9.2148 9.2148-9.2148 9.2148 4.125 9.2148 9.2148"/>
  <path d="m409.6 112.13h-403.97c-3.0703 0-5.6328-2.5586-5.6328-5.6328 0-3.0703 2.5586-5.6328 5.6328-5.6328h403.97c3.0703 0 5.6328 2.5586 5.6328 5.6328-0.003906 3.0703-2.5625 5.6328-5.6328 5.6328z"/>
 </g>
</svg>
